<svg width="54" height="56" viewBox="0 0 54 56" fill="none" xmlns="http://www.w3.org/2000/svg">
<rect width="54" height="56" fill="#EFE9D1"/>
<path fill-rule="evenodd" clip-rule="evenodd" d="M27 42C34.4558 42 40.5 35.732 40.5 28C40.5 20.268 34.4558 14 27 14C19.5442 14 13.5 20.268 13.5 28C13.5 35.732 19.5442 42 27 42ZM27 37.3333C31.9705 37.3333 36 33.1546 36 28C36 22.8453 31.9705 18.6667 27 18.6667C22.0294 18.6667 18 22.8453 18 28C18 33.1546 22.0294 37.3333 27 37.3333Z" fill="#B60B01"/>
<path d="M40.5 11.6666C39.2573 11.6666 38.25 12.7113 38.25 14C38.25 15.2886 39.2573 16.3333 40.5 16.3333C41.7427 16.3333 42.75 15.2886 42.75 14C42.75 12.7113 41.7427 11.6666 40.5 11.6666Z" fill="#B60B01"/>
<path fill-rule="evenodd" clip-rule="evenodd" d="M3.72141 9.97751C2.25 12.9723 2.25 16.8927 2.25 24.7334V31.2667C2.25 39.1074 2.25 43.0279 3.72141 46.0225C5.0157 48.6568 7.08093 50.7986 9.62113 52.1407C12.5089 53.6667 16.2893 53.6667 23.85 53.6667H30.15C37.7107 53.6667 41.4911 53.6667 44.3788 52.1407C46.919 50.7986 48.9843 48.6568 50.2785 46.0225C51.75 43.0279 51.75 39.1074 51.75 31.2667V24.7334C51.75 16.8927 51.75 12.9723 50.2785 9.97751C48.9843 7.34323 46.919 5.20151 44.3788 3.85928C41.4911 2.33337 37.7107 2.33337 30.15 2.33337H23.85C16.2893 2.33337 12.5089 2.33337 9.62113 3.85928C7.08093 5.20151 5.0157 7.34323 3.72141 9.97751ZM30.15 7.00004H23.85C19.9954 7.00004 17.3751 7.00368 15.3497 7.17527C13.3768 7.34243 12.3679 7.64542 11.6641 8.0173C9.97063 8.91214 8.59381 10.34 7.73093 12.0961C7.37233 12.826 7.08016 13.8723 6.91897 15.9182C6.75351 18.0186 6.75 20.736 6.75 24.7334V31.2667C6.75 35.2642 6.75351 37.9813 6.91897 40.0818C7.08016 42.1279 7.37233 43.1742 7.73093 43.904C8.59381 45.6601 9.97063 47.0879 11.6641 47.9827C12.3679 48.3546 13.3768 48.6577 15.3497 48.8248C17.3751 48.9963 19.9954 49 23.85 49H30.15C34.0047 49 36.6248 48.9963 38.6503 48.8248C40.6233 48.6577 41.6322 48.3546 42.336 47.9827C44.0293 47.0879 45.4061 45.6601 46.269 43.904C46.6276 43.1742 46.9199 42.1279 47.081 40.0818C47.2464 37.9813 47.25 35.2642 47.25 31.2667V24.7334C47.25 20.736 47.2464 18.0186 47.081 15.9182C46.9199 13.8723 46.6276 12.826 46.269 12.0961C45.4061 10.34 44.0293 8.91214 42.336 8.0173C41.6322 7.64542 40.6233 7.34243 38.6503 7.17527C36.6248 7.00368 34.0047 7.00004 30.15 7.00004Z" fill="#B60B01"/>
</svg>
