<svg width="56" height="54" viewBox="0 0 56 54" fill="none" xmlns="http://www.w3.org/2000/svg">
<path d="M45.0833 12.5149C44.7289 12.3383 44.3839 12.1447 44.0497 11.9348C43.0776 11.3152 42.1864 10.585 41.3951 9.76008C39.4154 7.57582 38.6761 5.35992 38.4037 3.80848H38.4147C38.1872 2.5207 38.2812 1.6875 38.2954 1.6875H29.2786V35.3088C29.2786 35.7602 29.2786 36.2064 29.2589 36.6472C29.2589 36.7021 29.2534 36.7527 29.2501 36.8118C29.2501 36.836 29.2501 36.8613 29.2447 36.8866C29.2447 36.893 29.2447 36.8993 29.2447 36.9056C29.1496 38.112 28.7486 39.2773 28.0769 40.2991C27.4052 41.3209 26.4833 42.1678 25.3925 42.7655C24.2556 43.3892 22.9697 43.7163 21.6617 43.7147C17.4606 43.7147 14.0558 40.4114 14.0558 36.3319C14.0558 32.2523 17.4606 28.9491 21.6617 28.9491C22.4569 28.9484 23.2473 29.069 24.0034 29.3066L24.0144 20.4536C21.719 20.1676 19.3871 20.3436 17.1657 20.9702C14.9443 21.5968 12.8818 22.6606 11.1081 24.0943C9.55396 25.3965 8.24738 26.9501 7.24717 28.6854C6.86654 29.3182 5.43045 31.8611 5.25654 35.988C5.14717 38.3305 5.8767 40.7573 6.22451 41.7604V41.7814C6.44326 42.3721 7.29092 44.3876 8.67232 46.0867C9.78624 47.4496 11.1023 48.6469 12.5781 49.6399V49.6188L12.6 49.6399C16.9651 52.5002 21.805 52.3125 21.805 52.3125C22.6428 52.2798 25.4494 52.3125 28.6365 50.856C32.1715 49.2412 34.184 46.8355 34.184 46.8355C35.4697 45.3981 36.4921 43.7599 37.2072 41.9913C38.0231 39.9231 38.2954 37.4425 38.2954 36.4511V18.6142C38.4048 18.6775 39.8617 19.6066 39.8617 19.6066C39.8617 19.6066 41.9606 20.9039 45.2353 21.7487C47.5847 22.3499 50.75 22.4764 50.75 22.4764V13.8449C49.6409 13.9609 47.3889 13.6234 45.0833 12.5149Z" fill="#B60B01"/>
</svg>
